<svg width="32" height="32" viewBox="0 0 32 32" fill="none" xmlns="http://www.w3.org/2000/svg">
<g clip-path="url(#clip0_1_78)">
<path d="M5.33331 9.33333H26.6666" stroke="#0D2167" stroke-width="2" stroke-linecap="round" stroke-linejoin="round"/>
<path d="M13.3333 14.6667V22.6667" stroke="#0D2167" stroke-width="2" stroke-linecap="round" stroke-linejoin="round"/>
<path d="M18.6667 14.6667V22.6667" stroke="#0D2167" stroke-width="2" stroke-linecap="round" stroke-linejoin="round"/>
<path d="M6.66669 9.33333L8.00002 25.3333C8.00002 26.0406 8.28097 26.7188 8.78107 27.2189C9.28117 27.719 9.95944 28 10.6667 28H21.3334C22.0406 28 22.7189 27.719 23.219 27.2189C23.7191 26.7188 24 26.0406 24 25.3333L25.3334 9.33333" stroke="#0D2167" stroke-width="2" stroke-linecap="round" stroke-linejoin="round"/>
<path d="M12 9.33333V5.33333C12 4.97971 12.1405 4.64057 12.3905 4.39052C12.6406 4.14048 12.9797 4 13.3333 4H18.6667C19.0203 4 19.3594 4.14048 19.6095 4.39052C19.8595 4.64057 20 4.97971 20 5.33333V9.33333" stroke="#0D2167" stroke-width="2" stroke-linecap="round" stroke-linejoin="round"/>
</g>
<defs>
<clipPath id="clip0_1_78">
<rect width="32" height="32" fill="white"/>
</clipPath>
</defs>
</svg>
